
<?xml version="1.0" encoding="utf-8"?>
<!-- Generator: Adobe Illustrator 27.5.0, SVG Export Plug-In . SVG Version: 6.00 Build 0)  -->
<svg version="1.1" xmlns="http://www.w3.org/2000/svg" xmlns:xlink="http://www.w3.org/1999/xlink" x="0px" y="0px" width="current" height="current"
	 viewBox="0 0 1000 1000" style="enable-background:new 0 0 1000 1000;" xml:space="preserve">
<g id="BG">
	<rect style="fill:transparent;" width="1000" height="1000"/>
</g>
<g id="Object">
	<g>
		<path style="fill:#C77171;" d="M464.882,638.312h0.003h0.005c0.552-0.185,1.107-0.372,1.661-0.557l-0.095-2.952
			c-0.589-0.378-1.175-0.755-1.764-1.133c0.497-1.157,1.003-2.316,1.51-3.473c0.037,0.014,0.074,0.027,0.111,0.04
			c-1.457-53.702,0.169-107.811,0.246-161.553c-0.177-0.312-0.283-0.594-0.296-0.839c-13.741-13.377-196.842-200.212-200.8-196.816
			c-1.841,1.544,41.96,47.729,45.218,51.172c7.34-6.451,17.454,16.78,16.561,18.217c11.686,13.036,24.308,25.137,36.682,37.51
			c3.805,0.042,5.138,1.352,4.003,3.929c30.756,29.732,61.708,59.287,92.625,88.855c1.03,84.458,3.05,169.012,2.113,253.46
			c1.31,0.179,2.619,0.364,3.926,0.559c0.219-28.208,1.043-56.443,0.037-84.646C466.046,639.495,465.465,638.903,464.882,638.312z"
			/>
		<path style="fill:#C77171;" d="M324.422,905.79c-2.287,1.592-2.128,2.168,0.473,1.724
			C324.509,907.002,324.351,906.426,324.422,905.79z"/>
		<path style="fill:#C77171;" d="M462.873,728.922c-0.082,0.005-0.161,0.013-0.243,0.018c0.077,34.638,11.183,78.412-16.646,105.017
			c0.153,0.034,0.306,0.066,0.462,0.098c0.871,1.236,1.747,2.472,2.622,3.707c29.434-27.273,17.728-72.734,17.509-108.679
			C465.544,728.806,464.171,728.84,462.873,728.922z"/>
		<path style="fill:#C77171;" d="M422.549,854.858c-0.903,0.66-2.006,1.241-2.961,1.89
			C420.543,856.101,421.646,855.519,422.549,854.858z"/>
		<path style="fill:#C77171;" d="M445.984,833.958c-6.07,6.503-14.921,11.932-22.235,16.841c2.107,0.285,4.211,0.57,6.319,0.855
			c-0.647,0.705-1.297,1.413-1.946,2.115c-1.413-0.069-2.823-0.142-4.235-0.214c-0.324,0.483-0.794,0.907-1.337,1.303
			c-0.903,0.66-2.006,1.242-2.961,1.89c0.955-0.648,2.058-1.23,2.961-1.89c0.542-0.396,1.013-0.82,1.337-1.303
			c-0.71-0.274-1.42-0.549-2.133-0.821c-0.296,0-0.592,0.003-0.885,0.005c-2.669,1.83-5.371,3.609-8.104,5.339
			c-0.174,0.951-0.795,1.849-1.952,2.678c-0.406,2.577-3.134,4.761-5.167,1.756c-24.81,14.963-51.558,26.175-76.659,40.518
			c0.576,0.966,0.692,2.012,0.349,3.137c3.839-1.339,7.62-2.917,11.357-4.507c-1.764-0.884-2.902-1.875-2.693-3.105
			c-0.206,1.231,0.929,2.221,2.693,3.105c4.821-2.054,9.601-4.201,14.383-6.34c0,0-0.005-0.032-0.005-0.05
			c0.528-1.442,1.481-2.123,2.854-2.046c0.05-0.053,0.103-0.098,0.167-0.127c0,0.034,0.007,0.069,0.021,0.103
			c31.673-11.523,66.054-32.383,90.957-55.437c-0.874-1.235-1.75-2.471-2.625-3.707C446.29,834.024,446.137,833.992,445.984,833.958
			z"/>
		<path style="fill:#C77171;" d="M564.774,868.91c-3.111,0.013-6.182,0.351-9.213,1.021c5.651,3.359,71.687,39.499,75.832,33.254
			C631.852,902.5,568.93,871.212,564.774,868.91z"/>
		<path style="fill:#C77171;" d="M665.841,264.842c-5.592-2.052-11.401-3.494-17.241-4.827
			C654.292,261.596,660.07,263.326,665.841,264.842z"/>
		<path style="fill:#C77171;" d="M552.501,335.581l0.001,0.001c0.295-0.341,0.617-0.645,0.954-0.929
			C553.119,334.937,552.796,335.241,552.501,335.581z"/>
		<path style="fill:#C77171;" d="M650.196,252.963c-13.691-3.583-27.403-5.946-41.503-7.37c2.284-2.944,4.552-5.864,6.593-8.983
			c0.436,0.198,0.879,0.383,1.323,0.57c2.258-1.914,12.912,0.513,6.852,2.424c21.905,6.266,47.204-2.361,57.814-22.6
			c4.637-8.843,7.116-18.108,4.486-27.915c-0.805-3.01-13.543-25.174-17.654-18.795c0.932-1.45,13.551,25.058,13.525,28.488
			c-0.111,14.29-10.253,29.6-23.39,35.094c-11.742,4.909-29.251,4.03-40.307-1.309c1.632-2.487,6.511-8.484,5.698-11.806
			c2.368,0.827,12.6,10.705,12.302,6.789c-0.382-5.022-7.042-8.019-10.781-9.807c-1.814-0.869-15.407-6.194-17.252-1.745
			c-2.147,5.178,13.121,4.249,14.121,4.064c-3.781,1.278-6.823,6.295-9.257,9.495c-17.649-12.96-21.148-33.711-6.852-50.576
			c5.185-6.118,12.455-10.895,20.194-12.991c4.172-1.13,37.262,0.478,37.141,0.79c2.833-7.195-31.366-9.442-35.62-8.663
			c-9.625,1.761-18.734,7.436-25.238,14.636c-17.538,19.419-13.854,46.056,7.483,60.871c-2.627,3.834-5.511,7.504-8.286,11.23
			c-58.988-6.524-117.676-7.092-176.83-3.438c-1.537,3.174-4.032,3.055-14.779,2.522c0.319-0.647,0.721-1.233,1.186-1.772
			c-15.692,0.394-31.454,2.39-46.974,4.679c0.08,0.069,0.159,0.135,0.238,0.201v0.002c-0.658,1.275-2.992,1.249-3.874,0.309
			c-17.886,2.36-35.968,4.671-53.694,8.043c-5.078,1.006-43.222,8.222-42.359,13.118c0.185,1.061,69.667-12.075,75.948-13.076
			c0.863-4.903,9.791-4.65,12.722-2.231c41.728-7.837,88.844-12.244,131.525-9.629c2.327-0.903,4.608-0.747,6.847,0.462
			c35.165,2.271,70.097,2.046,105.078,7.145c-0.029,0.034-0.06,0.074-0.09,0.108c-34.435-2.112-68.233-4.148-102.781-4.069
			c0.05,2.794-4.726,4.903-6.82,5.701c34.731,2.484,69.45,3.15,104.204,6.105c-4.719,8.204-9.799,16.184-14.893,24.155
			c-61.713,9.643-127.474,7.768-189.467,2.474c-0.188,3.9-18.111,2.815-16.823-1.795c-26.698-3.311-52.767-6.805-79.291-11.386
			c1.991,4.077-12.294,3.99-10.19-1.463c1.357-3.517,9.284-0.195,10.124,1.334c10.507-1.685,20.947-3.726,31.448-5.455
			c-5.199-1.212,11.927-5.392,13.657-1.925c48.26-5.12,97.312-15.534,146.182-12.394c-0.425-0.462-0.703-1.101-1.265-1.806
			c0.425-1.217,0.75-2.593,1.284-3.977c-42.364-1.753-87.265,4.301-129.133,10.427c-0.311,0.377-0.636,0.758-0.903,1.138
			c2.297,6.247-7.663,2.928-10.003,0.14c-19.695,1.487-46.464,2.72-63.973,12.429c-1.389-0.066-1.838,0.298-1.342,1.093
			c-0.446,1.088,0.299,1.587,2.231,1.502c20.786,10.958,49.261,14.86,72.545,16.846c-4.09-4.029,12.006-2.551,4.988,0.354
			c72.307,4.452,143.616,6.041,215.77-1.975c-9.226,10.794-16.112,23.123-24.934,34.21c-16.849,0.433-186.383,15.991-183.244,27.606
			c1.376,5.133,63.287-11.103,66.796-11.827c-3.573-1.133,2.598-3.681,2.39-0.494c36.914-7.615,73.442-9.986,110.979-11.658
			c-0.09,0.103-0.183,0.211-0.272,0.314c-33.45,4.708-63.287,21.884-95.602,30.915c-16.935,4.732-36.57,7.642-54.124,4.259
			c-6.02-1.159-28.694-7.697-30.181-10.179c-2.854,1.835,26.054,33.597,30.336,37.743c19.936,19.296,46.039,49.541,74.168,55.12
			c39.758,7.887,76.571-47.336,100.885-72.066c-0.615,0.037-1.23,0.074-1.848,0.113c-0.8,0.367-1.603,0.737-2.403,1.101
			c-2.352,2.831-3.573,3.818-6.968,1.434c-3.068-0.365-4.777-1.949-5.128-4.758c-1.511-0.721-1.899-1.553-0.832-2.522
			c-0.388-0.761-0.776-1.521-1.164-2.281c6.697-1.809,15.619,1.891,22.639,2.374c-0.026,0.063-0.044,0.129-0.068,0.193
			c8.824-9.112,17.11-18.705,24.517-28.937c0,0-0.229-0.19-0.665-0.515c1.468-9.925-32.415-13.955-37.455-14.269
			c-1.809-1.146-3.824-1.613-6.044-1.399c8.447-11.605,16.311-23.632,24.67-35.314c29.299-4.219,70.071-2.12,96.526-16.814
			c1.391,0.066,1.84-0.298,1.344-1.093c0.443-1.086-0.298-1.587-2.232-1.5c-2.7-1.429-5.485-2.621-8.325-3.663
			c-5.771-1.516-11.549-3.246-17.241-4.827c-5.262-1.201-10.546-2.321-15.71-3.74c5.106,0.904,10.371,2.257,15.71,3.74
			c5.84,1.333,11.649,2.775,17.241,4.827c8.853,2.326,17.686,4.138,26.151,4.085c-36.769,21.929-69.033,60.422-98.775,91.12
			c-35.295,36.431-71.815,71.676-107.755,107.468c0.195,0.219,0.391,0.436,0.586,0.652c2.5-0.071,5.003-0.143,7.506-0.214
			c8.444-8.259,16.572-16.209,24.377-23.843c-0.52-0.531-0.792-1.107-0.684-1.748c-0.108,0.642,0.164,1.217,0.684,1.748
			c31.923-31.229,63.773-62.437,95.152-94.212c11.988-12.138,24.53-23.693,36.483-35.865c9.418-9.588,18.758-19.241,28.28-28.724
			c3.501-3.488,13.067-16.12,15.344-17.012C688.047,259.271,659.334,255.355,650.196,252.963z M604.729,229.106
			c-0.623-0.768-1.246-1.537-1.87-2.305c1.439,0.013,2.82,0.407,4.141,1.177C606.243,228.354,605.487,228.731,604.729,229.106z
			 M407.639,339.972c-0.29,0.282-0.47,0.285-0.528-0.029C407.285,339.954,407.462,339.961,407.639,339.972
			c0.04-0.037,0.071-0.064,0.114-0.111l0.1,0.121C407.781,339.98,407.71,339.975,407.639,339.972z M407.871,339.901
			c2.796,0.937,3.866,1.307,4.08,2.073C411.737,341.208,410.668,340.838,407.871,339.901z M424.908,391.561
			c-1.313,0.386-2.218,0.013-2.712-1.119c0.782-1.646,10.168-9.704,12.218-4.059C431.778,388.023,429.621,390.402,424.908,391.561z
			 M482.573,366.007c0.087-0.064,3.05-0.098-0.782,0.884C482.04,366.593,482.225,366.266,482.573,366.007z M477.337,359.863
			c-0.319-0.148-0.8-0.285-1.045-0.441C476.537,359.578,477.018,359.712,477.337,359.863z M470.445,351.091
			c1.568,0.455,3.142,0.909,4.713,1.36c-1.571-0.452-3.142-0.906-4.716-1.357L470.445,351.091z M461.383,358.244
			c0.285-0.523,0.966-0.982,1.471-1.471c5.693-1.664,8.064,1.521,10.649,5.822C471.914,362.474,459.971,360.829,461.383,358.244z
			 M474.277,440.323c-2.619,0.534-4.898-0.058-6.833-1.774c-0.046-1.397,0.6-2.18,1.935-2.353c-2.998,0.167-5.853-0.482-8.565-1.966
			c0.969-2.844,2.915-4.386,5.835-4.631c4.671,1.389,8.325,3.137,7.753,6.345c2.054,0.188,3.594,0.874,4.043,2.26
			C478.2,439.584,476.529,440.21,474.277,440.323z M487.928,403.766c-2.06-0.428-4.119-0.858-6.181-1.286
			c2.062,0.428,4.122,0.858,6.184,1.286c0.979,1.386,1.959,2.77,2.939,4.153C489.89,406.536,488.91,405.152,487.928,403.766z
			 M495.775,344.44c-4.581,4.6,0.175-8.777,0.766-1.359C496.367,343.418,496.237,343.975,495.775,344.44z M526.102,351.532
			c-0.525,0.192-1.12,0.327-1.685,0.488l-0.089-0.047C525.317,350.896,526.774,351.284,526.102,351.532z M526.418,341.944
			c-0.166-0.032-0.23-0.227-0.338-0.351c0.447-0.304,0.787-0.238,1.02,0.198C526.87,341.847,526.592,341.976,526.418,341.944z
			 M528.708,347.41c1.78,0.021,3.591,0.008,4.233,1.196C531.034,348.715,529.262,348.685,528.708,347.41z M532.694,404.743
			c-0.622-0.769-1.246-1.537-1.869-2.305c1.439,0.013,2.82,0.404,4.14,1.177C534.208,403.99,533.452,404.365,532.694,404.743z
			 M541.812,365.154c-0.087,0.18-0.267,0.346-0.401,0.518c-4.016-0.645-4.016-0.645-3.741-2.936
			C542.979,362.374,543.114,362.453,541.812,365.154z M547.233,343.434c-1.022,0.462-2.294,0.763-3.139,1.027
			c1.035,0.085-6.932,0.079-5.831-1.74C540.26,339.418,549.364,342.473,547.233,343.434z M549.673,387.873
			c-0.755-0.053-0.893-0.304-0.409-0.755C550.359,386.877,550.494,387.128,549.673,387.873z M584.419,346.563
			c0.233-0.016,0.504,0.129,0.758,0.204c-0.195,0.116-0.388,0.229-0.57,0.338c-0.304-0.09-0.555-0.164-0.808-0.238
			C584.004,346.758,584.192,346.579,584.419,346.563z M575.682,331.177c5.939,1.84-5.706,5.748-5.959,3.939
			C570.797,332.589,572.785,331.277,575.682,331.177z M560.102,348.527c-0.332-0.204-0.67-0.407-1.003-0.613
			C560.089,347.64,562.601,347.204,560.102,348.527z M555.189,333.516c-0.63,0.306-1.204,0.691-1.733,1.137
			c-0.337,0.284-0.659,0.588-0.954,0.929l0.236,0.184c2.057,0.539,3.116,1.452,3.425,2.646c-2.287-0.452-4.08-1.088-3.425-2.646
			l-0.237-0.182c0,0,0.001-0.001,0.001-0.001l-0.001-0.001c0.295-0.34,0.618-0.644,0.955-0.928
			C553.984,334.207,554.557,333.822,555.189,333.516z M586.22,286.444c-1.106,0.769-2.4,0.647-3.879-0.359
			c-0.349-0.282,2.847-2.244,4.322-0.436C586.494,285.895,586.426,286.23,586.22,286.444z M637.398,261.745
			c1.309-0.8,2.609-0.71,3.897,0.264C641.3,263.446,636.769,262.912,637.398,261.745z M662.701,269.616
			c-26.761,4.352-53.522,8.323-80.294,12.563c2.918-4.262,5.767-8.568,8.545-12.92c-1.012-0.646-1.656-1.358-1.692-2.177
			c-0.005-0.117,0.002-0.236,0.023-0.357c-0.021,0.122-0.028,0.241-0.023,0.357c0.036,0.819,0.68,1.531,1.695,2.177
			c2.199-3.192,4.127-6.566,6.355-9.738c2.517,0.195,4.798,0.399,6.847,0.724C623.736,263.116,643.188,266.228,662.701,269.616z
			 M576.313,386.368c-1.64,0.304-3.285,0.227-4.938-0.227c-0.89-0.789,2.775-3.388,2.862-3.469
			C577.332,383.511,577.366,384.85,576.313,386.368z"/>
		<path style="fill:#C77171;" d="M469.378,436.195c0.219-0.012,0.438-0.018,0.658-0.039
			C469.8,436.155,469.582,436.169,469.378,436.195z"/>
		<path style="fill:#C77171;" d="M491.418,778.896c-1.893,0.106-3.644,0.069-4.196-1.199c1.751,0.024,3.528,0.016,4.196,1.148
			c0.417-30.753,0.116-61.57,0.116-92.332c-1.312,0.002-2.625,0.082-3.932,0.24c0.074,21.485-0.351,42.955-0.24,64.443
			c0.111,21.813-4.742,48.189,6.482,68.024c11.077,19.571,34.466,33.933,52.847,45.384c0.414-1.938,1.896-2.941,4.446-3.013
			c0.153-0.108,0.277-0.188,0.418-0.285C517.393,840.705,490.84,821.64,491.418,778.896z"/>
		<path style="fill:#C77171;" d="M491.472,533.754c-0.077-18.784-0.232-37.568-0.357-56.353c-0.283,0.201-0.57,0.396-0.858,0.594
			c-1.592-0.158-3.185-0.325-4.774-0.488c0.18-3.105,0.359-6.21,0.539-9.313c-0.312,0.055-0.621,0.119-0.93,0.179
			c0.272,25.043,0.795,50.085,1.151,75.127c1.413,0.077,1.365,1.849,0.029,2.242c0.071,6.1-0.037,12.197-0.135,18.296
			c0.549-0.016,1.122-0.019,1.743,0.008c-0.636,0.277-1.217,0.562-1.756,0.856c-0.375,23.838-0.415,47.8,0.668,71.62
			c1.075,0.827,1.104,1.465,0.087,1.912c0.668,14.586,0.66,29.175,0.707,43.771c1.323-0.011,2.64,0.008,3.947,0.076
			c-0.01-48.64,0.148-97.299-0.053-145.934C487.094,535.513,490.014,533.775,491.472,533.754z"/>
		<path style="fill:#C77171;" d="M496.306,929.055c34.587-4.79,71.612-9.265,106.303-11.932c-0.188,0.311-0.356,0.631-0.518,0.953
			c1.996-0.362,25.417-4.296,25.013-7.504c0.177,1.408-123.429,14.401-134.968,15.045
			C493.843,926.652,495.535,927.687,496.306,929.055z"/>
		<path style="fill:#C77171;" d="M484.844,925.715c-39.454,0.15-79.201-2.242-118.296-7.626c-4.072-0.605-40.027-9.002-40.782-6.025
			c-3.628,14.126,152.456,17.899,164.212,17.541C486.906,929.58,485.192,928.284,484.844,925.715z"/>
		<path style="fill:#C77171;" d="M476.479,474.531c-1.262,22.376-0.19,44.915-0.251,67.314c0.391,0.084,0.782,0.171,1.169,0.256
			c0.066-24.173,0.999-48.342,1.273-72.516c-0.634,0.103-1.273,0.19-1.917,0.272C476.643,471.415,476.55,472.97,476.479,474.531z"/>
		<path style="fill:#C77171;" d="M478.2,461.048c-0.256-0.055-0.541,1.154-0.858,3.356c0.436-0.098,0.872-0.195,1.31-0.29
			C478.583,462.226,478.422,461.096,478.2,461.048z"/>
		<path style="fill:#C77171;" d="M476.127,570.415c-0.005,0.536-0.348,14.665,0.724,14.668c1.024,0,0.876-11.724,0.876-12.814
			C476.949,571.679,476.36,571.066,476.127,570.415z"/>
		<path style="fill:#C77171;" d="M476.226,543.64c-0.032,8.526,0.018,17.047-0.085,25.573c0.397-0.734,0.922-1.354,1.571-1.864
			c-0.04-7.81-0.314-15.61-0.314-23.421C477.007,543.833,476.616,543.735,476.226,543.64z"/>
		<path style="fill:#C77171;" d="M480.611,574.705c-0.043,19.286,0.43,38.636-0.132,57.909c0.444,0.061,0.855,0.143,1.23,0.253
			c0.016-0.964,0.035-1.93,0.053-2.894c0.53-18.309,0.375-36.655,0.586-54.975C481.768,575.08,481.186,574.985,480.611,574.705z"/>
		<path style="fill:#C77171;" d="M481.306,572.617c0.349,0.053,0.705,0.095,1.059,0.143c0.014-1.592,0.014-3.185-0.005-4.777
			C481.332,569.403,481.021,570.953,481.306,572.617z"/>
		<path style="fill:#C77171;" d="M480.762,542.806c0.655,0.127,1.323,0.229,1.991,0.332c0.032-1.128,0.045-2.35,0.056-3.308
			c0.103-9.152-0.439-67.37-0.668-67.351C479.418,472.601,480.894,536.807,480.762,542.806z"/>
		<path style="fill:#C77171;" d="M480.64,546.914c-0.198,6.131-0.132,12.278-0.1,18.41c0.544-0.28,1.143-0.528,1.822-0.729
			c0.026-6.297,0.055-12.59,0.301-18.885c-0.621-0.316-1.273-0.589-1.957-0.829C480.685,545.539,480.664,546.214,480.64,546.914z"/>
		<path style="fill:#C77171;" d="M480.379,640.281c-0.008,0.389-0.013,0.776-0.018,1.164c-0.105,11.204-2.722,103.861,0.559,104.228
			c-0.153-0.019,0.441-95.424,0.647-105.514C481.171,640.2,480.775,640.239,480.379,640.281z"/>
		<path style="fill:#C77171;" d="M476.096,639.956c-0.113-0.002-0.211,0.008-0.322,0.011c0.085,14.509,0.111,29.095,0.549,43.594
			c0.1-0.064,0.193-0.126,0.333-0.185c-0.105,0.267-0.208,0.533-0.314,0.8c0.246,8.611-1.861,118.747,1.471,119.075
			c-1.886-0.209,0.068-147.566,0.068-162.889C477.279,640.313,476.682,640.194,476.096,639.956z"/>
		<path style="fill:#C77171;" d="M476.558,600.426c-3.541,3.493-0.853,27.337-0.827,31.863c0.71,0.063,1.431,0.111,2.158,0.147
			c0.005-1.045-0.003-2.088-0.019-3.134C477.849,628.214,475.856,601.126,476.558,600.426z"/>
		<path style="fill:#C77171;" d="M473.553,482.08c-2.189,0.121-1.188,52.115-1.302,55.429c0.441,0.51,0.874,1.022,1.31,1.531
			c0.003-1.087,0.005-2.197,0.011-3.361C473.585,532.603,475.375,481.982,473.553,482.08z"/>
		<path style="fill:#C77171;" d="M472.098,541.829c-0.044,1.259-0.084,2.463-0.116,3.536c-0.644,3.322-0.433,6.538,0.634,9.648
			c1.452-0.14,0.945-11.819,0.945-12.989C473.057,541.963,472.568,541.9,472.098,541.829z"/>
		<path style="fill:#C77171;" d="M472.55,565.886c-1.228-0.111-1.077,60.176-0.932,65.843c0.658,0.124,1.32,0.235,1.999,0.325
			c-0.05-2.358-0.095-4.718-0.132-7.076C473.413,619.131,474.752,566.089,472.55,565.886z"/>
		<path style="fill:#C77171;" d="M472.143,732.683c0.087,5.033-2.004,85.588,0.956,85.929c0.282,0.032,0.193-86.631,0.158-90.312
			C472.882,729.759,472.51,731.222,472.143,732.683z"/>
		<path style="fill:#C77171;" d="M471.855,641.963c-0.043-0.013-0.085-0.023-0.127-0.037c0.077,9.273-0.053,18.544,0.019,27.82
			c0.517-0.061,1.075-0.087,1.671-0.082c0.011-9.791,0.219-19.574,0.219-29.365C472.688,640.638,472.122,641.208,471.855,641.963z"
			/>
		<path style="fill:#C77171;" d="M471.76,671.125c-0.005,18.098,0.538,36.174,0.325,54.275c0.555,0.119,0.932,0.259,1.167,0.435
			c0.193-18.726,0.142-37.444,0.166-56.17c-0.597-0.005-1.154,0.021-1.671,0.082C471.75,670.204,471.76,670.679,471.76,671.125z"/>
		<path style="fill:#C77171;" d="M468.944,477.653c0.953,0.709,1.273,7.742,1.288,16.717
			C470.546,484.604,470.284,478.207,468.944,477.653z"/>
		<path style="fill:#C77171;" d="M468.071,613.869c-3.897-2.867,1.147-63.889,1.147-72.766c-1.26-0.546-1.859-1.397-1.23-2.828
			c0.311-0.71-1.173-1.753,1.265-1.951c0.012-2.613,1.007-25.533,0.98-41.953C469.1,529.55,460.517,608.279,468.071,613.869z"/>
		<path style="fill:#C77171;" d="M468.806,477.594c0.049,0.005,0.093,0.04,0.139,0.059
			C468.899,477.62,468.853,477.599,468.806,477.594z"/>
		<path style="fill:#C77171;" d="M468.304,636.936c0.132-0.235,0.264-0.47,0.364-0.71h0.002c-0.103-0.066-0.203-0.129-0.304-0.195
			C468.344,636.323,468.325,636.625,468.304,636.936z"/>
		<path style="fill:#C77171;" d="M468.655,734.098c-0.262-1.244-0.048-2.538-0.513-3.747c-0.016,6.337-1.304,95.086,1.236,95.297
			c0.309,0.026,0.211-85.264,0.153-90.92C469.114,734.578,468.7,734.306,468.655,734.098z"/>
		<path style="fill:#C77171;" d="M468.829,631.085c0.338,0.095,0.684,0.182,1.03,0.267c-0.014-0.412-0.026-0.795-0.048-1.136
			C469.537,625.196,468.967,629.936,468.829,631.085z"/>
		<path style="fill:#C77171;" d="M469.489,670.291c0.188-0.082,0.399-0.143,0.605-0.209c-0.09-9.553-0.024-19.109-0.132-28.665
			c-0.612-0.177-1.228-0.354-1.843-0.531c-1.001,27.984,0.333,56.034,0.066,84.025c0.494,0.045,0.985,0.095,1.476,0.15
			c0.066-3.916,0.092-7.831,0.071-11.747c-0.026-14.406,0.512-28.836,0.362-43.233C469.889,670.148,469.677,670.208,469.489,670.291
			z"/>
		<path style="fill:#C77171;" d="M480.844,814.133c0.763,0.047,0.686-45.482,0.813-50.673c0.475-3.047,0.22-5.994-0.771-8.84
			C477.551,754.979,480.783,814.128,480.844,814.133z"/>
		<path style="fill:#C77171;" d="M294.746,283.157c-5.329,4.479,37.085,40.452,40.436,44.16c0.193-0.053,0.383-0.103,0.576-0.156
			c-0.106,0.151-0.208,0.301-0.309,0.452c0.996,1.157,22.592,23.03,24.535,21.068C359.49,349.177,294.724,283.175,294.746,283.157z"
			/>
		<path style="fill:#C77171;" d="M610.143,328.319c-0.935,0.843-5.91,5.202-4.706,6.604c1.172,1.365,56.245-53.924,54.283-55.764
			C656.53,276.152,615.65,323.524,610.143,328.319z"/>
		<path style="fill:#C77171;" d="M407.715,875.149c1.983,0.137,3.824-0.19,5.925-0.676c6.218-4.333,12.254-8.925,18.457-13.276
			c-0.146-0.27-0.231-0.548-0.235-0.84c-0.001-0.098,0.006-0.197,0.023-0.298c-0.017,0.101-0.024,0.2-0.023,0.298
			c0.004,0.293,0.088,0.57,0.235,0.837c1.809-1.267,25.341-18.531,24.353-19.819C453.863,837.985,407.773,875.112,407.715,875.149z"
			/>
		<path style="fill:#C77171;" d="M355.065,908.705c-0.022-0.049-0.019-0.104-0.024-0.157
			C355.036,908.601,355.042,908.653,355.065,908.705z"/>
		<path style="fill:#C77171;" d="M611.541,906.771c-0.015,0.016-0.032,0.03-0.048,0.045
			C611.51,906.801,611.526,906.786,611.541,906.771z"/>
		<path style="fill:#C77171;" d="M611.708,906.508c-0.034,0.102-0.094,0.186-0.167,0.263
			C611.614,906.693,611.675,906.609,611.708,906.508z"/>
		<path style="fill:#C77171;" d="M514.019,849.349c-7.338,6.709,57.491,43.758,63.255,46.251c-16.426-3.491-32.563-5.334-49.39-6.44
			c-2.677-2.527-32.063-47.785-31.654-47.985c-6.781,3.382,25.613,45.171,27.992,47.138c0.56-0.034,1.17-0.018,1.798,0.016
			c-0.644,1.188-2.455,1.175-4.233,1.199c0.132-0.304,0.338-0.533,0.595-0.713c-8.413-0.473-16.82-0.534-25.241-0.507
			c-0.676-2.379-9.719-48.575-9.572-48.587c-7.404,0.684,6.329,45.686,7.422,48.584c-6.187-0.01-12.405-0.298-18.586-0.216
			c-0.863-5.35-0.903-11.724-0.766-17.171c-0.338-0.259-0.525-0.579-0.771-0.874c-0.019-0.005-0.04-0.011-0.058-0.016
			c0.005-0.005,0.013-0.01,0.013-0.01l0.019-0.008c0,0,0.019,0.024,0.026,0.035c0.261,0.066,0.528,0.129,0.79,0.195
			c0.008-0.383,1.642-36.172,0.612-36.256c-6.53-0.531-2.627,48.65-2.015,54.161c-1.407,0.039-2.823,0.08-4.235,0.121
			c0.145,0.045,0.295,0.101,0.446,0.137c1.376,1.671,1.352,2.646-0.076,2.928c-1.281,0.129-2.007-2.653-1.16-3.044
			c-5.703,0.159-11.291,1.154-16.976,1.423c2.329-6.123,22.117-53.892,18.05-54.766c-3.166-0.681-17.87,49.116-20.408,54.882
			c-12.666,0.639-25.05,1.442-37.658,3.121c10.432-9.125,22.109-16.759,31.479-27.226c-1.561,0.156-3.15,0.251-4.729,0.373
			c-0.082-0.061-0.161-0.119-0.24-0.18c-9.82,9.817-19.529,18.903-30.308,27.545c-10.089,1.444-20.221,2.268-30.294,3.836
			c9.408-6.686,19.489-12.906,29.277-19.045c-1.053-0.182-2.046-0.489-2.983-0.903c-9.379,6.351-18.93,12.284-28.398,18.552
			c0.94,0.298,1.626,0.7,1.568,1.355c-0.227,2.651-5.672,2.133-7.092,1.534c-2.334,1.04-5.35,1.22-7.826,1.94
			c-0.132,0.14-0.264,0.283-0.396,0.425c1.04,1.627,1.426,4.962-1.637,2.968c-0.468,0.282-5.742,3.062-5.619,4.427
			c0.305-3.109,46.695-10.679,48.31-10.97c-1.671,1.402-14.908,7.794-13.44,10.372c1.22,2.147,17.192-10.506,17.942-11.188
			c13.527-2.424,27.002-3.699,40.711-4.114c-0.794,1.891-9.492,12.812-7.208,14.443c1.875,1.344,9.331-13.545,9.754-14.536
			c7.848-0.285,15.565-1.059,23.444-1.091c0.251,1.867-1.074,15.175,1.975,15.104c1.746-0.037,0.607-13.937,0.378-15.09
			c6.456,0.124,12.925,0.528,19.389,0.666c0.386,1.5,12.244,29.283,15.951,24.702c0.058-0.074-13.382-22.668-13.899-24.662
			c10.367,0.177,20.683,0.732,31.013,1.613c0.837,1.075,24.628,22.666,26.97,18.328c0.385-0.708-21.66-15.848-22.138-16.252
			c-1.453,0.166-2.403-0.386-2.849-1.658c-0.942-1.555,4.737-1.784,5.752-1.765c-0.115-0.039-0.075-0.036,0.076,0.001
			c0.08,0.003,0.088,0.008,0.058,0.015c1.07,0.275,5.956,1.778,3.03,2.475c17.438,2.088,36.718,7.486,54.14,7.739
			c-0.824-0.428,0.062-0.861,0.758-1.11C566.193,887.86,509.841,853.18,514.019,849.349z"/>
		<path style="fill:#C77171;" d="M537.095,892.449c0.021,0.007,0.043,0.015,0.075,0.025c0.041-0.003,0.045-0.006,0.059-0.009
			c-0.02-0.005-0.041-0.01-0.058-0.015C537.153,892.449,537.118,892.449,537.095,892.449z"/>
		<path style="fill:#C77171;" d="M597.854,902.821c-0.303,0.156-0.91,0.247-1.962,0.206c1.963,0.811,13.731,5.464,15.601,3.789
			C610.322,907.828,605.196,906.154,597.854,902.821z"/>
		<path style="fill:#C77171;" d="M595.826,901.356l-0.003,0.003l-0.003-0.003c0.033-0.003-0.288,0.079-0.663,0.213
			c0.927,0.439,1.829,0.858,2.697,1.252C598.715,902.38,597.083,901.407,595.826,901.356z"/>
		<path style="fill:#C77171;" d="M360.565,904.047c-0.452-0.346-0.629-0.855-0.718-1.305c-0.008-1.138,0.774-1.685,2.35-1.634h0.002
			c0.132-0.119,0.264-0.235,0.397-0.351c-2.25,0.325-4.191,1.241-5.825,2.752C357.995,904.097,359.26,904.276,360.565,904.047z"/>
		<path style="fill:#C77171;" d="M441.751,862.652c1.505-0.005,2.992,0.146,4.462,0.449c1.338-1.457,10.422-9.076,9.054-10.367
			C453.137,850.709,443.33,860.867,441.751,862.652z M449.754,858.079c0.148-1.267,0.768-2.45,2.221-3.478h0.003
			C452.414,855.979,451.703,857.144,449.754,858.079z"/>
		<path style="fill:#C77171;" d="M711.666,83.302c1.719,1.547,2.2,4.592-0.892,5.772c0.026,2.292,2.112,4.048,4.164,4.671
			c-5.502,7.536-9.429,17.01-15.695,23.622c1.711,0.805,2.382,1.954,3.309,3.015c5.672-7.034,14.892-16.342,18.151-24.937
			C753.291,103.966,723.68,45.318,711.666,83.302z M717.127,89.412c-0.082-0.317-0.37-1.444,0.071-1.645
			c4.18-2.332,2.994-14.034,11.89-8.798C741.409,86.222,722.266,89.301,717.127,89.412z"/>
		<path style="fill:#C77171;" d="M688.092,132.465c-5.666,8.428-11.948,16.416-17.551,24.842c-5.376,8.082-9.02,14.895,3.918,6.617
			c13.152-8.415,19.577-30.326,27.865-43.264c-1.555-0.589-3.177-0.908-4.866-0.959
			C694.965,124.482,690.875,127.976,688.092,132.465z"/>
		<path style="fill:#C77171;" d="M603.737,210.882c1.024-0.193,0.705-16.984,2.017-20.107c0.267-0.739,12.072-16.941,12.466-16.336
			C610.932,163.274,594.146,212.741,603.737,210.882z"/>
		<path style="fill:#C77171;" d="M617.562,182.652c-3.311-3.57-6.057,8.782-6.208,9.379c-2.712,10.631,3.25,10.667,2.463-0.032
			C614.544,189.188,619.313,184.54,617.562,182.652z"/>
		<path style="fill:#C77171;" d="M618.587,195.757c-1.109,4.349,0.486,3.567,1.925,0.581c-0.235-0.267-0.27-0.533-0.022-0.8
			c0.114-0.491,1.078-1.875,1.423-2.567c-0.161-0.053-0.309-0.103-0.48-0.161v-0.003c0.172,0.061,0.319,0.111,0.48,0.164
			C622.154,192.612,620.05,190.02,618.587,195.757z M621.201,192.881c-0.29,0.283-0.47,0.285-0.528-0.029
			C620.847,192.863,621.024,192.871,621.201,192.881c0.04-0.04,0.071-0.063,0.114-0.111l0.1,0.122
			C621.343,192.89,621.272,192.884,621.201,192.881z"/>
		<path style="fill:#C77171;" d="M643.415,225.917c8.172,0.473,24.411-31.694,22.671-32.195
			C661.054,192.256,649.335,226.178,643.415,225.917z"/>
		<path style="fill:#C77171;" d="M671.211,196.407c-1.307-0.225-16.859,30.044-17.754,28.683
			C656.364,229.502,676.233,197.254,671.211,196.407z"/>
		<path style="fill:#C77171;" d="M675.565,204.703c-1.083-0.304-3.712,1.188-4.138,2.318c-0.829,2.036-11.14,18.38-11.512,17.63
			C661.938,228.708,679.378,205.765,675.565,204.703z"/>
	</g>
</g>
</svg>